<svg width="178" height="52" viewBox="0 0 178 52" fill="none" xmlns="http://www.w3.org/2000/svg">
<path fill-rule="evenodd" clip-rule="evenodd" d="M35.0831 18.6675C35.5536 19.3066 36.1584 19.8111 36.8641 20.1811C37.5698 20.5511 38.3427 20.7193 39.2164 20.7193C40.0229 20.7193 40.7286 20.5511 41.3335 20.2484C41.9384 19.9457 42.4761 19.5084 42.9465 18.9366L43.1482 20.4502H46.475V0H42.7449V7.33247C42.308 6.82794 41.804 6.45796 41.2327 6.18887C40.6614 5.91979 39.9893 5.78525 39.25 5.78525C38.3427 5.78525 37.5698 5.95343 36.8641 6.32341C36.1584 6.6934 35.5872 7.16429 35.0831 7.837C34.579 8.47607 34.2094 9.24968 33.9741 10.1578C33.7053 11.066 33.6045 12.075 33.6045 13.1514V13.4204C33.6045 14.4631 33.7389 15.4385 33.9741 16.3467C34.2094 17.2212 34.579 17.9948 35.0831 18.6675ZM37.2674 13.1514C37.2674 12.5459 37.3346 11.9741 37.4354 11.436C37.5362 10.8978 37.7042 10.4605 37.9395 10.0569C38.1747 9.6533 38.4771 9.35058 38.8468 9.11514C39.2164 8.87969 39.6533 8.77878 40.191 8.77878C40.8294 8.77878 41.3335 8.91332 41.7704 9.18241C42.1736 9.45149 42.5097 9.82148 42.7785 10.326V16.1785C42.5433 16.6494 42.2072 17.0194 41.7704 17.3221C41.3335 17.5912 40.8294 17.7257 40.191 17.7257C39.6533 17.7257 39.2164 17.6248 38.8468 17.3894C38.4771 17.1539 38.1747 16.8512 37.9395 16.4812C37.7042 16.1113 37.5362 15.6404 37.4354 15.1358C37.3346 14.6313 37.2674 14.0595 37.2674 13.4541V13.1514ZM23.187 4.17144C22.9181 4.07053 22.7165 3.93599 22.5149 3.76782C22.3132 3.59964 22.1788 3.39783 22.078 3.19602C21.9772 2.92694 21.91 2.65785 21.91 2.38877C21.91 2.08606 21.9772 1.81697 22.078 1.58153C22.1788 1.31245 22.3132 1.11064 22.5149 0.94246C22.7165 0.774284 22.9181 0.639743 23.187 0.538838C23.4558 0.437932 23.7246 0.404297 24.0607 0.404297C24.7328 0.404297 25.2704 0.572473 25.6401 0.94246C26.0097 1.31245 26.2114 1.78334 26.2114 2.35514C26.2114 2.92694 26.0097 3.39783 25.6401 3.76782C25.2368 4.1378 24.7328 4.30598 24.0607 4.30598C23.7246 4.30598 23.4558 4.27234 23.187 4.17144ZM25.9089 17.4572H29.8071V20.4508H18.0791V17.4572H22.1788V9.08206H18.0791V6.05489H25.9089V17.4572ZM120.942 3.76782C121.144 3.93599 121.346 4.07053 121.614 4.17144C121.883 4.27234 122.152 4.30598 122.488 4.30598C123.16 4.30598 123.664 4.1378 124.067 3.76782C124.437 3.39783 124.639 2.92694 124.639 2.35514C124.639 1.78334 124.437 1.31245 124.067 0.94246C123.698 0.572473 123.16 0.404297 122.488 0.404297C122.152 0.404297 121.883 0.437932 121.614 0.538838C121.346 0.639743 121.144 0.774284 120.942 0.94246C120.741 1.11064 120.606 1.31245 120.505 1.58153C120.405 1.81697 120.337 2.08606 120.337 2.38877C120.337 2.65785 120.405 2.92694 120.505 3.19602L120.505 3.1961C120.64 3.39788 120.774 3.59966 120.942 3.76782ZM124.37 17.4572H128.268V20.4508H116.54V17.4572H120.64V9.08206H116.54V6.05489H124.37V17.4572ZM55.0104 20.7532C54.2711 20.7532 53.599 20.6187 52.9941 20.4169C52.3556 20.2151 51.818 19.9124 51.3811 19.5087C50.9443 19.1051 50.5746 18.6679 50.3394 18.1297C50.1041 17.6252 49.9697 17.0197 49.9697 16.4143C49.9697 14.9007 50.541 13.7235 51.6836 12.8826C52.8261 12.0417 54.5063 11.6381 56.7578 11.6381H58.8077V10.7972C58.8077 10.0909 58.5725 9.55273 58.1356 9.14911C57.6987 8.74549 57.0267 8.54367 56.1866 8.54367C55.4473 8.54367 54.876 8.67821 54.5399 9.01457C54.2039 9.35092 54.0359 9.78818 54.0359 10.3263H50.3394C50.3394 9.72091 50.4738 9.11547 50.7426 8.57731C51.0115 8.03915 51.4147 7.53462 51.9188 7.131C52.4565 6.69374 53.0949 6.35739 53.8342 6.12194C54.6071 5.88649 55.4473 5.75195 56.4218 5.75195C57.2955 5.75195 58.102 5.88649 58.8413 6.0883C59.5806 6.29012 60.2527 6.62647 60.7904 7.03009C61.328 7.43371 61.7649 7.97188 62.0673 8.61094C62.3698 9.25001 62.5378 9.98999 62.5378 10.8309V17.0197C62.5378 17.7934 62.5714 18.4324 62.6722 18.9369C62.773 19.4415 62.9074 19.8787 63.1091 20.2487V20.4842H59.3454C59.2446 20.316 59.1773 20.1142 59.1101 19.8787L59.1101 19.8787C59.0429 19.6432 58.9757 19.4078 58.9421 19.1388C58.7405 19.3742 58.5053 19.576 58.2364 19.7778C57.9676 19.9796 57.6987 20.1478 57.3627 20.2824C57.0267 20.4169 56.6906 20.5178 56.2874 20.6187C55.8841 20.7196 55.4473 20.7532 55.0104 20.7532ZM54.4391 14.5307C54.1703 14.7325 54.0023 14.968 53.8678 15.2371C53.7334 15.5062 53.6662 15.8089 53.6662 16.1116C53.6662 16.6161 53.8678 17.0197 54.2039 17.3561C54.5399 17.6924 55.0776 17.8606 55.7833 17.8606C56.1529 17.8606 56.489 17.827 56.825 17.7261C57.1611 17.6588 57.4299 17.5243 57.6987 17.3897C57.9676 17.2552 58.1692 17.087 58.3708 16.9188C58.5389 16.7507 58.7069 16.5825 58.8077 16.3807V13.8917H56.9258C56.3546 13.8917 55.8505 13.9589 55.4473 14.0598C55.044 14.1608 54.708 14.3289 54.4391 14.5307ZM69.5614 20.1811C70.2671 20.5511 71.04 20.7193 71.9137 20.7193C72.7202 20.7193 73.4259 20.5511 74.0308 20.2484C74.6357 19.9457 75.1733 19.5084 75.6438 18.9366L75.8454 20.4502H79.1723V0H75.4422V7.33247C75.0053 6.82794 74.5012 6.45796 73.93 6.18887C73.3587 5.91979 72.6866 5.78525 71.9473 5.78525C71.04 5.78525 70.2671 5.95343 69.5614 6.32341C68.8557 6.6934 68.2844 7.16429 67.7803 7.837C67.2763 8.47607 66.9066 9.24968 66.6714 10.1578C66.4026 11.066 66.3018 12.075 66.3018 13.1514V13.4204C66.3018 14.4631 66.4362 15.4385 66.6714 16.3467C66.9402 17.2549 67.3099 17.9948 67.7803 18.6675C68.2844 19.3066 68.8557 19.8111 69.5614 20.1811ZM69.9982 13.1514C69.9982 12.5459 70.0655 11.9741 70.1663 11.436C70.2671 10.8978 70.4351 10.4605 70.6703 10.0569C70.9056 9.6533 71.208 9.35058 71.5777 9.11514C71.9473 8.87969 72.3842 8.77878 72.9218 8.77878C73.5603 8.77878 74.0644 8.91332 74.5012 9.18241C74.9045 9.45149 75.2405 9.82148 75.5094 10.326V16.1785C75.2741 16.6494 74.9381 17.0194 74.5012 17.3221C74.0644 17.5912 73.5603 17.7257 72.9218 17.7257C72.3842 17.7257 71.9473 17.6248 71.5777 17.3894C71.208 17.1539 70.9056 16.8512 70.6703 16.4812C70.4351 16.1113 70.2671 15.6404 70.1663 15.1358C70.0655 14.6313 69.9982 14.0595 69.9982 13.4541V13.1514ZM95.2351 10.8309V17.0197C95.2351 17.7934 95.2687 18.4324 95.3359 18.9369C95.4367 19.4415 95.5711 19.8787 95.7727 20.2487V20.4842H92.009C91.9082 20.316 91.841 20.1142 91.7738 19.8787C91.7066 19.6433 91.6394 19.4078 91.6058 19.1388C91.4042 19.3742 91.1689 19.576 90.9001 19.7778C90.6312 19.9796 90.3624 20.1478 90.0264 20.2824C89.6903 20.4169 89.3543 20.5178 88.951 20.6187C88.5478 20.7196 88.1109 20.7532 87.674 20.7532C86.9348 20.7532 86.2627 20.6187 85.6578 20.4169C85.0529 20.1814 84.5152 19.8787 84.0784 19.5087C83.6415 19.1051 83.2719 18.6679 83.0366 18.1297C82.8014 17.6252 82.667 17.0197 82.667 16.4143C82.667 14.9007 83.2383 13.7235 84.3808 12.8826C85.5234 12.0417 87.2036 11.6381 89.4551 11.6381H91.505V10.7972C91.505 10.0909 91.2697 9.55273 90.8329 9.14911C90.396 8.74549 89.7239 8.54367 88.8838 8.54367C88.1445 8.54367 87.5732 8.67821 87.2372 9.01457C86.9012 9.35092 86.7331 9.78818 86.7331 10.3263H83.0366C83.0366 9.72091 83.1711 9.11547 83.4399 8.57731C83.7087 8.03915 84.112 7.53462 84.6161 7.131C85.1537 6.69374 85.7922 6.35739 86.5315 6.12194C87.3044 5.88649 88.1445 5.75195 89.119 5.75195C89.9928 5.75195 90.7993 5.88649 91.5386 6.0883C92.2779 6.29012 92.95 6.62647 93.4876 7.03009C94.0253 7.43371 94.4622 7.97188 94.7646 8.61094C95.067 9.25001 95.2351 9.98999 95.2351 10.8309ZM91.1017 16.8852C91.2697 16.717 91.4378 16.5488 91.5386 16.347V13.8244H89.6567C89.0854 13.8244 88.5814 13.8917 88.1781 13.9926C87.7749 14.0935 87.4388 14.2617 87.17 14.4635C86.9012 14.6653 86.7331 14.9007 86.5987 15.1698C86.4643 15.4389 86.3971 15.7416 86.3971 16.078C86.3971 16.5825 86.5987 16.9861 86.9348 17.3225C87.2708 17.6588 87.8085 17.827 88.5142 17.827C88.8838 17.827 89.2199 17.7934 89.5559 17.6924C89.8919 17.6252 90.1608 17.4906 90.4296 17.3561C90.6985 17.2216 90.9001 17.0534 91.1017 16.8852ZM103.132 10.2255C103.401 9.78829 103.771 9.4183 104.208 9.18286C104.645 8.91377 105.182 8.81287 105.821 8.81287C106.258 8.81287 106.627 8.8465 106.963 8.94741C107.299 9.04832 107.602 9.18286 107.837 9.38467C108.072 9.58648 108.274 9.88919 108.375 10.2592C108.509 10.6292 108.576 11.1001 108.576 11.6719V20.4843H112.273V11.6046C112.273 10.5619 112.138 9.65375 111.903 8.94741C111.668 8.20743 111.332 7.602 110.861 7.16474C110.425 6.69385 109.887 6.3575 109.282 6.15569C108.677 5.95388 108.005 5.81934 107.299 5.81934C106.392 5.81934 105.585 6.02115 104.846 6.42477C104.107 6.82839 103.468 7.36656 102.964 8.10653L102.729 6.12205H99.3687V20.5515H103.099V10.2255H103.132ZM144.298 10.8309V17.0197C144.298 17.6152 144.337 18.131 144.371 18.5671L144.371 18.5675C144.381 18.6978 144.391 18.8209 144.398 18.9369C144.499 19.4415 144.634 19.8787 144.835 20.2487V20.4842H141.072C140.971 20.316 140.904 20.1142 140.836 19.8787C140.769 19.6433 140.702 19.4078 140.668 19.1388C140.467 19.3742 140.231 19.576 139.963 19.7778C139.694 19.9796 139.425 20.1478 139.089 20.2824C138.753 20.4169 138.417 20.5178 138.014 20.6187C137.61 20.7196 137.173 20.7532 136.737 20.7532C135.997 20.7532 135.325 20.6187 134.72 20.4169C134.115 20.1814 133.578 19.8787 133.141 19.5087C132.704 19.1051 132.334 18.6679 132.099 18.1297C131.864 17.6252 131.729 17.0197 131.729 16.4143C131.729 14.9007 132.301 13.7235 133.443 12.8826C134.586 12.0417 136.266 11.6381 138.518 11.6381H140.567V10.7972C140.567 10.0909 140.332 9.55273 139.895 9.14911C139.459 8.74549 138.786 8.54367 137.946 8.54367C137.207 8.54367 136.636 8.67821 136.3 9.01457C135.964 9.35092 135.796 9.78818 135.796 10.3263H132.099C132.099 9.72091 132.234 9.11547 132.502 8.57731C132.771 8.03915 133.174 7.53462 133.679 7.131C134.216 6.69374 134.855 6.35739 135.594 6.12194C136.367 5.88649 137.207 5.75195 138.182 5.75195C139.055 5.75195 139.862 5.88649 140.601 6.0883C141.34 6.29012 142.012 6.62647 142.55 7.03009C143.088 7.43371 143.525 7.97188 143.827 8.61094C144.13 9.25001 144.298 9.98999 144.298 10.8309ZM140.164 16.8852C140.332 16.717 140.5 16.5488 140.601 16.347V13.8244H138.719C138.148 13.8244 137.644 13.8917 137.241 13.9926C136.837 14.0935 136.501 14.2617 136.232 14.4635C135.964 14.6653 135.796 14.9007 135.661 15.1698C135.527 15.4389 135.46 15.7416 135.46 16.078C135.46 16.5825 135.661 16.9861 135.997 17.3225C136.333 17.6588 136.871 17.827 137.577 17.827C137.946 17.827 138.282 17.7934 138.618 17.6924C138.954 17.6252 139.223 17.4906 139.492 17.3561C139.761 17.2216 139.963 17.0534 140.164 16.8852ZM160.697 20.4502H148.565V23.3428H160.697V20.4502ZM5.10771 30.4403H1.44482V27.4131H12.6351V30.4403H8.87141V43.8271H12.6351V46.8206H1.44482V43.8271H5.10771V30.4403ZM29.1016 33.5007C28.6648 33.0298 28.1271 32.6934 27.5222 32.4916C26.9173 32.2898 26.2452 32.1553 25.5395 32.1553C24.6322 32.1553 23.8257 32.3571 23.0864 32.7607C22.3471 33.1643 21.7086 33.7025 21.2046 34.4425L20.9693 32.458H17.6089V46.8875H21.339V36.6288C21.6078 36.1915 21.9775 35.8215 22.4143 35.5861C22.8512 35.317 23.3889 35.2161 24.0273 35.2161C24.4642 35.2161 24.8338 35.2497 25.1699 35.3506C25.5059 35.4515 25.8084 35.5861 26.0436 35.7879C26.2788 35.9897 26.4805 36.2924 26.5813 36.6624C26.7157 37.0324 26.7829 37.5033 26.7829 38.0751V46.8875H30.4794V38.0078C30.4794 36.9651 30.345 36.057 30.1097 35.3506C29.8745 34.5434 29.5385 33.9379 29.1016 33.5007ZM59.715 32.6598C60.5215 32.9962 61.1936 33.5007 61.7649 34.1061C62.3362 34.7115 62.773 35.4852 63.1427 36.326C63.4451 37.2006 63.5795 38.176 63.5795 39.2187V40.7995H53.8006C53.8678 41.304 54.0359 41.7413 54.2375 42.1449C54.4727 42.5485 54.7416 42.8849 55.0776 43.1876C55.4137 43.4903 55.7833 43.6921 56.2202 43.8603C56.657 44.0285 57.1275 44.0958 57.6315 44.0958C58.0012 44.0958 58.3372 44.0621 58.7069 43.9949C59.0765 43.9276 59.4126 43.8267 59.7486 43.6921C60.0511 43.5576 60.3871 43.3894 60.6559 43.1876C60.9248 42.9858 61.1936 42.7504 61.3952 42.4813L63.2435 44.4658C63.0083 44.8021 62.7058 45.1385 62.3362 45.4412C61.9665 45.7439 61.5297 46.0466 61.0256 46.2821C60.5215 46.5511 59.9503 46.7529 59.3454 46.8875C58.7405 47.0557 58.0684 47.1229 57.3627 47.1229C56.2538 47.1229 55.2456 46.9548 54.3383 46.5848C53.431 46.2148 52.6581 45.7439 52.0196 45.1048C51.3475 44.4658 50.8434 43.7258 50.5074 42.8849C50.1378 42.044 49.9697 41.1359 49.9697 40.1604V39.6223C49.9697 38.5123 50.1377 37.5033 50.4738 36.5951C50.8098 35.687 51.3139 34.9134 51.9188 34.2407C52.5573 33.568 53.2966 33.0634 54.1367 32.6934C55.0104 32.3234 55.9177 32.1553 56.9258 32.1553C57.9676 32.1553 58.9085 32.3234 59.715 32.6598ZM53.767 38.2769H59.8494V38.0078C59.8158 37.6042 59.7486 37.2342 59.6142 36.8978C59.4798 36.5278 59.2782 36.2588 59.0429 35.9897C58.8077 35.7206 58.5053 35.5188 58.1356 35.3843C57.766 35.2161 57.3627 35.1488 56.8923 35.1488C56.489 35.1488 56.0857 35.2497 55.7497 35.3843C55.4137 35.5524 55.1112 35.7542 54.8424 36.0233C54.5735 36.2924 54.3383 36.6288 54.1703 36.9987C54.0023 37.3687 53.8678 37.806 53.767 38.2769ZM74.8033 26.3701H66.7383V29.3973H71.0732V43.8268H66.7383V46.8203H78.9367V43.8268H74.8033V26.3701ZM82.7344 32.4248H90.5642V43.8271H94.4623V46.8207H82.7344V43.8271H86.8341V35.452H82.7344V32.4248ZM88.6824 26.7402C88.3464 26.7402 88.0775 26.7739 87.8087 26.8748C87.5399 26.9757 87.3382 27.1102 87.1366 27.2784C86.935 27.4466 86.8006 27.6484 86.6998 27.9175C86.5989 28.1529 86.5317 28.422 86.5317 28.7247C86.5317 28.9938 86.5989 29.2629 86.6998 29.532C86.8006 29.7674 86.935 29.9692 87.1366 30.171C87.3382 30.3392 87.5399 30.4737 87.8087 30.5746C88.0775 30.6755 88.3464 30.7092 88.6824 30.7092C89.3545 30.7092 89.8586 30.541 90.2618 30.171C90.6315 29.801 90.8331 29.3301 90.8331 28.7583C90.8331 28.1865 90.6315 27.7157 90.2618 27.3457C89.8586 26.942 89.3545 26.7402 88.6824 26.7402ZM124.84 32.6598C125.647 32.9962 126.319 33.5007 126.89 34.1061C127.428 34.7115 127.865 35.4852 128.268 36.326C128.571 37.2006 128.705 38.176 128.705 39.2187V40.7995H118.926C118.993 41.304 119.161 41.7413 119.363 42.1449C119.598 42.5485 119.867 42.8849 120.203 43.1876C120.539 43.4903 120.909 43.6921 121.346 43.8603C121.783 44.0285 122.253 44.0958 122.757 44.0958C123.127 44.0958 123.463 44.0621 123.832 43.9949C124.202 43.9276 124.538 43.8267 124.874 43.6921C125.177 43.5576 125.513 43.3894 125.781 43.1876C126.05 42.9858 126.319 42.7504 126.521 42.4813L128.369 44.4658C128.134 44.8021 127.831 45.1385 127.462 45.4412C127.092 45.7439 126.655 46.0466 126.151 46.2821C125.647 46.5511 125.076 46.7529 124.471 46.8875C123.866 47.0557 123.194 47.1229 122.488 47.1229C121.379 47.1229 120.371 46.9548 119.464 46.5848C118.556 46.2148 117.784 45.7439 117.145 45.1048C116.473 44.4658 115.969 43.7258 115.633 42.8849C115.263 42.044 115.095 41.1359 115.095 40.1604V39.6223C115.095 38.5123 115.263 37.5033 115.599 36.5951C115.935 35.687 116.439 34.9134 117.044 34.2407C117.683 33.568 118.422 33.0634 119.262 32.6934C120.136 32.3234 121.043 32.1553 122.051 32.1553C123.093 32.1553 124.034 32.3234 124.84 32.6598ZM118.893 38.2769H124.975V38.0078C124.941 37.6042 124.874 37.2342 124.74 36.8978C124.605 36.5278 124.404 36.2588 124.168 35.9897C123.933 35.7206 123.631 35.5188 123.261 35.3843C122.891 35.2161 122.488 35.1488 122.018 35.1488C121.614 35.1488 121.211 35.2497 120.875 35.3843C120.539 35.5524 120.237 35.7542 119.968 36.0233C119.699 36.2924 119.464 36.6288 119.296 36.9987C119.128 37.3687 118.993 37.806 118.893 38.2769ZM143.961 33.5007C143.525 33.0298 142.987 32.6934 142.382 32.4916C141.777 32.2898 141.105 32.1553 140.399 32.1553C139.492 32.1553 138.686 32.3571 137.946 32.7607C137.207 33.1643 136.568 33.7025 136.064 34.4425L135.829 32.458H132.469V46.8875H136.199V36.6288C136.468 36.1915 136.837 35.8215 137.274 35.5861C137.711 35.317 138.249 35.2161 138.887 35.2161C139.324 35.2161 139.694 35.2497 140.03 35.3506C140.366 35.4515 140.668 35.5861 140.903 35.7879C141.139 35.9897 141.34 36.2924 141.441 36.6624C141.576 37.0324 141.643 37.5033 141.643 38.0751V46.8875H145.339V38.0078C145.339 36.9651 145.205 36.057 144.97 35.3506C144.734 34.5434 144.398 33.9379 143.961 33.5007ZM177.028 36.3597C177.331 37.2342 177.465 38.2096 177.465 39.2523H177.566V40.7995H167.787C167.854 41.304 168.022 41.7413 168.224 42.1449C168.459 42.5485 168.728 42.8849 169.064 43.1876C169.4 43.4903 169.77 43.6921 170.206 43.8603C170.643 44.0285 171.114 44.0958 171.618 44.0958C171.988 44.0958 172.324 44.0621 172.693 43.9949C173.063 43.9276 173.399 43.8267 173.735 43.6921C174.037 43.5576 174.373 43.3894 174.642 43.1876C174.911 42.9858 175.18 42.7504 175.382 42.4813L177.23 44.4658C176.995 44.8021 176.692 45.1385 176.322 45.4412C175.953 45.7439 175.516 46.0466 175.012 46.2821C174.508 46.5511 173.937 46.7529 173.332 46.8875C172.727 47.0557 172.055 47.1229 171.349 47.1229C170.24 47.1229 169.232 46.9548 168.325 46.5848C167.417 46.2148 166.644 45.7439 166.006 45.1048C165.334 44.4658 164.83 43.7258 164.494 42.8849C164.124 42.044 163.956 41.1359 163.956 40.1604V39.6223C163.956 38.5123 164.124 37.5033 164.46 36.5951C164.796 35.687 165.3 34.9134 165.905 34.2407C166.544 33.568 167.283 33.0634 168.123 32.6934C168.997 32.3234 169.904 32.1553 170.912 32.1553C171.954 32.1553 172.895 32.3234 173.701 32.6598C174.508 32.9962 175.18 33.5007 175.751 34.1061C176.322 34.7452 176.726 35.4852 177.028 36.3597ZM167.753 38.2769H173.836V38.0078C173.802 37.6042 173.735 37.2342 173.601 36.8978C173.466 36.5278 173.264 36.2588 173.029 35.9897C172.794 35.7206 172.492 35.5188 172.122 35.3843C171.752 35.2161 171.349 35.1488 170.879 35.1488C170.475 35.1488 170.072 35.2497 169.736 35.3843C169.4 35.5524 169.098 35.7542 168.829 36.0233C168.56 36.2924 168.325 36.6288 168.157 36.9987C167.989 37.3687 167.854 37.806 167.753 38.2769ZM107.366 33.7692C106.929 33.2311 106.425 32.8274 105.821 32.5584C105.216 32.2893 104.51 32.1211 103.636 32.1211C102.729 32.1211 101.922 32.2893 101.217 32.6593C100.511 33.0292 99.8725 33.5001 99.3685 34.1728C98.8644 34.8119 98.4612 35.5855 98.1923 36.4937C97.9235 37.4018 97.7891 38.4109 97.7891 39.4872V39.7563C97.7891 40.799 97.9235 41.7744 98.1923 42.6825C98.4612 43.5907 98.8644 44.3307 99.3685 45.0034C99.8725 45.6424 100.477 46.147 101.183 46.517C101.889 46.8869 102.695 47.0551 103.603 47.0551C104.376 47.0551 105.048 46.9206 105.619 46.6515C106.19 46.3824 106.694 46.0124 107.131 45.5415V46.3824V48.1314V48.1315C107.131 48.1987 107.131 48.2324 107.098 48.2996C107.064 48.7369 106.829 48.9723 106.392 48.9723H99.6373V51.9995H108.744C109.349 51.9995 109.853 51.7977 110.256 51.3941C110.66 50.9904 110.828 50.755 110.828 50.1159V46.3488V45.3397V32.4238H107.467L107.366 33.7692ZM107.165 42.6825C106.929 43.1198 106.593 43.4898 106.157 43.7252C105.72 43.9607 105.216 44.0952 104.544 44.0952C104.006 44.0952 103.569 43.9943 103.199 43.7589C102.83 43.5234 102.494 43.2207 102.258 42.8507C102.023 42.4807 101.822 42.0098 101.721 41.5053C101.586 41.0008 101.553 40.429 101.553 39.8236V39.5545C101.553 38.949 101.62 38.3772 101.754 37.8391C101.889 37.3009 102.057 36.8637 102.326 36.46C102.594 36.0564 102.897 35.7537 103.267 35.5182C103.636 35.2828 104.107 35.1819 104.611 35.1819C105.249 35.1819 105.753 35.3164 106.19 35.5519C106.627 35.7873 106.963 36.1573 107.198 36.5946V42.6825H107.165ZM151.758 28.8926H155.454V32.4243H160.831V35.1487H155.454V41.0349V43.053V43.1539C155.488 43.5912 155.723 43.8266 156.16 43.8266H156.63H160.428H160.764V46.551V46.8538H159.688H154.95H153.841C153.236 46.8538 152.732 46.652 152.329 46.2483C151.959 45.8447 151.758 45.5756 151.758 44.9702V44.7347V41.7076V35.1487H148.464V32.4243H151.758V28.8926ZM40.8296 28.8926H37.1331V32.4243H33.8398V35.1487H37.1331V41.7076V44.7347V44.9702C37.1331 45.5756 37.3347 45.8447 37.7044 46.2483C38.1076 46.652 38.6117 46.8538 39.2166 46.8538H40.3255H45.0637H46.1391V46.551V43.8266H45.803H42.0057H41.5353C41.0984 43.8266 40.8632 43.5912 40.8296 43.1539V43.053V41.0349V35.1487H46.2063V32.4243H40.8296V28.8926ZM14.0803 8.40917H10.451V7.87101V7.26557C10.4174 6.69378 10.3166 6.18925 10.1821 5.75199C10.0477 5.31473 9.87971 4.94475 9.61087 4.64203C9.34204 4.37295 9.00599 4.1375 8.60274 4.00296C8.19949 3.83478 7.72902 3.76751 7.19135 3.76751C6.62008 3.76751 6.11601 3.90205 5.67915 4.1375C5.24229 4.40658 4.87265 4.74293 4.60381 5.24746C4.33497 5.75199 4.13335 6.32379 3.99893 7.03013C3.86451 7.73647 3.7973 8.54371 3.7973 9.41823V12.0754C3.7973 13.9926 4.06614 15.4053 4.60381 16.3134C5.14148 17.2216 5.98159 17.6925 7.15775 17.6925C8.13228 17.6925 8.90518 17.4234 9.47646 16.9189C10.0477 16.4143 10.3838 15.5735 10.451 14.3962V13.6226V13.1181H14.0803V13.589C14.0803 13.8581 14.0803 14.0935 14.0467 14.3626C13.9795 15.1362 13.845 15.8425 13.6098 16.5152C13.3074 17.3898 12.8705 18.1634 12.2656 18.7688C11.6943 19.3742 10.9551 19.8451 10.0813 20.1815C9.20762 20.5178 8.23309 20.686 7.09054 20.686C6.18322 20.686 5.37671 20.5515 4.63741 20.316C4.43579 20.2488 4.26777 20.1815 4.09974 20.1142C3.19242 19.677 2.45312 19.0715 1.84824 18.3315C1.24336 17.5916 0.806507 16.6834 0.470462 15.6071C0.168022 14.5308 0 13.3535 0 12.0754V10.7636V9.4855C0 8.17372 0.168022 6.99649 0.537671 5.92017C0.873716 4.84384 1.34418 3.93569 1.98266 3.16208C2.58754 2.38847 3.36045 1.81667 4.23416 1.37942L4.23417 1.37941C4.57021 1.24487 4.90625 1.11033 5.2759 1.00943C5.84717 0.874888 6.45205 0.807617 7.09054 0.807617C8.19949 0.807617 9.20762 0.975793 10.0813 1.31214C10.9551 1.6485 11.6607 2.11939 12.2656 2.72482C12.8705 3.36389 13.3074 4.10387 13.6098 4.97838C13.845 5.68472 14.0131 6.45833 14.0467 7.29921C14.0803 7.50102 14.0803 7.70283 14.0803 7.90464V8.40917Z" fill="white"/>
</svg>
